<?xml version="1.0" encoding="utf-8"?>
<!-- Generator: Adobe Illustrator 25.4.1, SVG Export Plug-In . SVG Version: 6.00 Build 0)  -->
<svg version="1.1" id="Layer_1" xmlns="http://www.w3.org/2000/svg" xmlns:xlink="http://www.w3.org/1999/xlink" x="0px" y="0px"
	 viewBox="0 0 171.4 102.2" style="enable-background:new 0 0 171.4 102.2;" xml:space="preserve">
<style type="text/css">
	.st0{clip-path:url(#SVGID_00000165215088403628645390000011097088605914760353_);}
	.st1{fill:#C59B39;}
	.st2{fill-rule:evenodd;clip-rule:evenodd;fill:#E3D274;}
	.st3{fill-rule:evenodd;clip-rule:evenodd;fill:#F9EBA0;}
	.st4{fill-rule:evenodd;clip-rule:evenodd;fill:#B0841C;}
	.st5{fill:#E3D274;}
	.st6{fill:#B0841C;}
</style>
<g>
	<defs>
		<rect id="SVGID_1_" x="-55.4" y="-72.8" width="283.5" height="255.1"/>
	</defs>
	<clipPath id="SVGID_00000143586187107480403040000001176769763906264706_">
		<use xlink:href="#SVGID_1_"  style="overflow:visible;"/>
	</clipPath>
	<g style="clip-path:url(#SVGID_00000143586187107480403040000001176769763906264706_);">
		<path class="st1" d="M169.7,3.1l1.6-2.5L170.1,0C154,12.7,135.6,21.8,117,30.2c1.4,7.1,1.6,13.4,0.6,18.8
			c-0.3-10.4-9.1-19.3-21.2-22.8v1.4l1.3,0.6c0.4,0.2,0.1-0.2,0.5-0.1c9.8,3.5,16.6,10.8,16.6,19.3c0,11.9-13.3,21.5-29.7,21.5
			s-29.7-9.6-29.7-21.5c0-9,7.6-16.6,18.3-19.9l1.3-0.7l-1.3-0.6C61.5,29.7,52.8,38.5,52.5,49c-0.9-6.1-0.8-12.3,0.5-18.3
			c0-0.1,1.5,0.1,1.4,0.1l-1.3-0.6C35,22,17,12.8,1.3,0.6L0,0c1.3,21.1,22.3,27.8,48.4,33.5c0,2.3,0.1,5.2,0.1,7.5
			c-0.8-2.3-0.7-4.4-2.2-6.8L45,33.6c-10.6-0.5-20.8-3.7-31.2-7.8c-2.3-0.7-4.7-0.7-7,0.1C16,36.9,28.2,44.2,46,44.3l2.7,4.3
			c-0.4-0.2-0.1-0.6-0.6-0.8l-1.3-0.6c-6.2,0.3-12.3-0.8-18-3.1c-2.5-0.4-4.8-0.5-6.4,0.2c8.2,6.4,17.3,10.3,27.9,10
			c1,2.4,2.8,4.4,5.1,5.7l0,0c5.2,8.6,16.5,14.5,29.6,14.5s24.4-6,29.6-14.5l0,0c2.3-1.3,4-3.3,5.1-5.7c10.1,0.4,18.7-3.2,26.6-9
			c0.3-0.2,3-0.2,2.6-0.3l-1.3-0.6c-1.6-0.7-3.9-0.6-6.4-0.2c-5.7,2.3-11.8,3.4-18,3.1c-0.6,0.5-1.2,1-1.9,1.4l2.7-4.3
			c17.3-0.1,31.3-7.2,40.5-17.8l-1.3-0.6c-2.3-0.8-4.7-0.8-7-0.1c-10.4,4.1-20.6,7.3-31.2,7.8c-1.5,2.3-2.7,4.8-3.5,7.4
			c0-2.3,0-5.2,0-7.5C146.4,28.1,159.4,18.9,169.7,3.1z"/>
		<path class="st1" d="M70.8,39.6c0,0.9,0.3,1.9,0.7,2.7l0,0c1.4,2.7,3.7,4.7,6.6,5.6L73,56.2l0,0c-1.3,2.2-3.3,3.9-5.7,4.9v0.4
			l1.3,0.6l3.3-0.6c1.7,0,3.3-0.9,4.2-2.4l0,0l6.6-10.8h0.5v9.9c0,1.6-1.3,2.8-2.9,2.9v0.5c0.2,0,1.1,0.6,1.3,0.6
			c4.2,0,4.1-0.6,8.6-0.6l0.9,0.3l0.4-0.2l-1.3-0.6c-1.6,0-2.8-1.3-2.9-2.9v-10h0.5l6.6,10.8l0,0c0.4,0.7,0.9,1.2,1.6,1.6l1.4,0.7
			l0.1-0.1c0.4,0.1,0.7,0.1,1.1,0.1h4.6c0-0.4-4.3-2.9-5.7-5.3l0,0l-5.1-8.4c2.8-0.9,5.2-2.9,6.6-5.6l0,0c1.5-2.6,0.6-5.9-2-7.4
			c-0.8-0.5-1.7-0.7-2.7-0.7H76.3C73.3,34,70.8,36.5,70.8,39.6C70.8,39.5,70.8,39.5,70.8,39.6z M87.3,37.2c0-0.6,0.4-1.2,0.9-1.4
			l0.2-0.1c0.6-0.2,1.2-0.4,1.8-0.4c2.4,0,4.4,1.9,4.4,4.3c0,0,0,0,0,0v3.2c0,2.4-2,4.4-4.4,4.3c0,0,0,0,0,0c-0.7,0-1.4-0.2-2-0.5
			c-0.6-0.3-0.9-0.8-0.9-1.4L87.3,37.2z M75.8,39.6c0-2.4,2-4.4,4.4-4.3c0,0,0,0,0,0c0.6,0,1.2,0.1,1.8,0.4l0.2,0.1
			c0.6,0.3,0.9,0.8,0.9,1.4v8.1c0,0.6-0.4,1.2-0.9,1.4c-0.6,0.3-1.3,0.5-2,0.5c-2.4,0-4.4-1.9-4.4-4.3c0,0,0,0,0,0L75.8,39.6z"/>
		<g>
			<path class="st2" d="M82,35.6c-0.6-0.2-1.2-0.4-1.8-0.4c-2.4,0-4.4,1.9-4.4,4.3c0,0,0,0,0,0v3.2c0,2.4,2,4.4,4.4,4.3c0,0,0,0,0,0
				c0.7,0,1.4-0.2,2-0.5c0.6-0.3,0.9-0.8,0.9-1.4v-8.1c0-0.6-0.4-1.2-0.9-1.4L82,35.6 M87.3,37.1v8.1c0,0.6,0.4,1.2,0.9,1.4
				c0.6,0.3,1.3,0.5,2,0.5c2.4,0,4.4-1.9,4.4-4.3c0,0,0,0,0,0v-3.2c0-2.4-2-4.4-4.4-4.3c0,0,0,0,0,0c-0.6,0-1.2,0.1-1.8,0.4
				l-0.2,0.1C87.7,36,87.3,36.5,87.3,37.1L87.3,37.1z M60.3,35.6c0-0.8,0.1-1.7,0.3-2.5c3.8-3.2,8.3-5.6,13.1-6.9l1.3,0.6l-1.3,0.7
				C68.6,29,63.9,31.8,60.3,35.6L60.3,35.6z M97,55.4c-1.1,0.8-2.3,1.6-3.5,2.2l-5.7-9.3h-0.5v9.9c0,0.5,0.1,1,0.4,1.5
				c-1.5,0.3-3,0.5-4.6,0.5h-0.8c0.5-0.5,0.7-1.2,0.8-1.9v-10h-0.5l-6.5,10.7c-1.4-0.4-2.7-1-3.9-1.7c0.3-0.4,0.5-0.7,0.7-1.1l0,0
				l5.1-8.4c-2.8-0.9-5.1-2.9-6.5-5.5l0,0c-1.5-2.6-0.6-5.9,2-7.4c0.8-0.5,1.8-0.7,2.7-0.7h17.9c3,0,5.4,2.4,5.4,5.4
				c0,0.9-0.2,1.9-0.7,2.7l0,0c-1.4,2.7-3.7,4.7-6.6,5.6L97,55.4z M104.9,29.8c0.2,0.7,0.4,1.4,0.6,2.1c-2.3-1.6-4.8-2.8-7.4-3.7
				c-0.4-0.1-0.1,0.3-0.5,0.1l-1.3-0.6v-1.3C99.4,27.1,102.2,28.3,104.9,29.8L104.9,29.8z"/>
		</g>
		<g>
			<path class="st3" d="M76.4,50.6c0.8,1.6,1.3,3.4,1.7,5.2L76,59.2l0,0c-0.9,1.5-2.5,2.4-4.2,2.4l-3.3,0.6l-1.3-0.6v-0.4
				c2.4-0.9,4.4-2.7,5.7-4.9l0,0L76.4,50.6z M56.6,37.4c0.7,0,1.4,0.1,2.1,0.2c-2.1,2.9-3.3,6.3-3.3,9.9c0,9.9,9.2,18.2,21.8,20.7
				c-0.7,1.8-1.5,3.4-2.6,5c-8.5-2.2-15.4-7-19.2-13.2l0,0c-2.3-1.3-4-3.3-5.1-5.7c-5.4,0.2-10.9-0.8-15.9-2.8
				c0.7-1.7,1.7-3.4,2.8-4.9c3.2,0.6,6.4,0.8,9.6,0.6l1.3,0.6c0.5,0.2,0.2,0.6,0.6,0.8L46,44.3c-2.2,0-4.3-0.1-6.5-0.4
				c2.4-2.3,5.2-4.1,8.3-5.2c0.2,0.8,0.4,1.6,0.6,2.3c0-0.8,0-1.7,0-2.5c1.2-0.4,2.4-0.7,3.6-0.9c-0.4,3.8-0.2,7.6,0.4,11.4
				C52.7,44.8,54.1,40.7,56.6,37.4z"/>
		</g>
		<g>
			<path class="st4" d="M90.7,53c0-2,0.3-4,0.9-6c1.9-0.5,3.2-2.2,3.2-4.2v-2.6c1.1-1.5,2.3-2.9,3.7-4.2c1.5,1.7,1.7,4.2,0.6,6.2
				l0,0c-1.4,2.7-3.7,4.7-6.6,5.6l5.2,8.4l0,0c1.3,2.2,3.3,3.9,5.7,4.9v0.4h-4.6c-1.7,0-3.3-0.9-4.2-2.4l0,0L90.7,53z M117.1,30.6
				c2.5,0.4,4.9,1.2,7.1,2.3l-2.6,0.6c0,2.3,0,5.2,0,7.5c0.8-2.6,2-5.1,3.5-7.4h0.3c3.9,2.3,7,5.7,8.9,9.8
				c-3.4,0.6-6.8,0.9-10.2,0.9l-2.7,4.3c0.7-0.4,1.3-0.9,1.9-1.4c4.1,0.2,8.1-0.2,12.1-1.2c0.5,1.6,0.9,3.3,1.1,5.1
				c-5.3,2.3-11,3.4-16.8,3.2c-1,2.4-2.8,4.4-5.1,5.7l0,0c-3,5.1-8.2,9.2-14.7,11.8c-1.6-1.2-3.1-2.6-4.4-4.2
				c11.2-3.1,19.1-10.9,19.1-20.1c0-6.2-3.6-11.7-9.3-15.6c0.6-0.2,1.1-0.4,1.7-0.6c6.3,4.4,10.3,10.7,10.5,17.7
				C118.5,42.9,118.4,36.6,117.1,30.6z"/>
		</g>
		<g>
			<path class="st4" d="M72.9,35.3C73,36.2,73,37.1,73,38c0,1.9-0.2,3.7-0.7,5.6c-0.3-0.4-0.5-0.9-0.8-1.3l0,0
				C70.3,39.9,70.8,37,72.9,35.3 M70.4,27.3c0.2,0.4,0.4,0.8,0.6,1.2c-9.3,3.6-15.6,10.7-15.6,18.9c0.1,4.2,1.7,8.2,4.5,11.3
				c-1.4,0.6-2.8,1.1-4.3,1.4L55.4,60l0,0c-2.3-1.3-4-3.3-5.1-5.7c-7.1,0.2-14.1-1.5-20.2-4.9c-1-1.7-1.7-3.5-2.2-5.4l0.9,0.1
				c5.7,2.3,11.8,3.4,18,3.1l1.3,0.6c0.5,0.2,0.2,0.6,0.6,0.8L46,44.3c-6.4,0-12.7-1.1-18.7-3.3c-0.1-1-0.2-2-0.2-3
				c0-2.5,0.4-4.9,1.2-7.2c5.4,1.6,11,2.5,16.7,2.8l1.3,0.6c1.6,2.4,1.4,4.5,2.2,6.8c0-2.3-0.1-5.2-0.1-7.5
				c-6.9-1.5-13.4-3.1-19.3-5c1.3-2.7,3-5.2,5.3-7.2c6.2,3.2,12.4,6.1,18.7,8.9l1.3,0.6c0.1,0.1-1.4-0.2-1.4-0.1
				c-1.3,6-1.4,12.2-0.5,18.3C52.8,39.5,60,31.3,70.4,27.3L70.4,27.3z"/>
		</g>
		<g>
			<path class="st3" d="M45.7,34c0.5,0.6,0.9,1.1,1.3,1.7c0.8,1.8,0.8,3.5,1.4,5.3c0-0.9,0-1.8,0-2.8c1.6,3.2,2.5,6.8,2.5,10.4
				c0,1.9-0.2,3.9-0.7,5.7c-10.6,0.3-19.6-3.6-27.7-10c1.6-0.7,3.9-0.6,6.4-0.2c5.7,2.3,11.8,3.4,18,3.1l1.3,0.6
				c0.5,0.2,0.2,0.6,0.6,0.8l-2.7-4.3c-14.5,0-25.2-4.9-33.7-12.6c1.8-1.7,3.9-3.1,6.1-4.1c8.8,3.2,17.5,5.6,26.4,6L45.7,34z
				 M28,25.6c6.2,0,12.2,2.5,16.5,7c-7.5-1.6-14.8-3.7-21.9-6.3C24.4,25.8,26.2,25.6,28,25.6z"/>
		</g>
		<g>
			<path class="st2" d="M20.3,28.2c-1.4,2.2-3.2,4.1-5.3,5.6c-3-2.4-5.7-5.1-8.1-8c2.3-0.8,4.7-0.8,7-0.1
				C16,26.7,18.2,27.5,20.3,28.2 M24.2,15.7c0,3.5-0.9,7-2.4,10.2C9.2,20.6,0.8,13.1,0,0l1.3,0.6C8.5,6.2,16.2,11.2,24.2,15.7
				L24.2,15.7z"/>
		</g>
		<g>
			<path class="st2" d="M128.6,44.1c-2.2-2.6-3.7-5.6-4.6-8.9c0.3-0.6,0.6-1.1,1-1.7c10.6-0.5,20.8-3.7,31.2-7.8
				c2.3-0.7,4.7-0.7,7,0.1l1.3,0.6C156.2,36.1,143.8,42.9,128.6,44.1 M137.5,50.6c-2.2-0.9-4.3-2.2-6.1-3.8c3.4-0.5,6.7-1.4,9.9-2.7
				c2.5-0.4,4.8-0.5,6.4,0.2l1.3,0.6c0.4,0.2-2.2,0.1-2.6,0.3C143.5,47.4,140.6,49.2,137.5,50.6L137.5,50.6z M157.1,9.2
				c1.8,1,3.5,2.2,5,3.7c-9,9.7-20.5,16-38.6,20.2c-0.2-1.2-0.3-2.4-0.3-3.6c0-0.8,0-1.5,0.1-2.2C135,22,146.3,16,157.1,9.2z"/>
		</g>
		<path class="st1" d="M72.1,40.2c0,0.9,0.2,1.9,0.7,2.7l0,0c1.4,2.7,3.7,4.7,6.6,5.6l-5.1,8.4l0,0c-1.3,2.2-3.3,3.9-5.7,4.9v0.4
			h4.6c1.7,0,3.3-0.9,4.2-2.4l0,0L84,49h0.5v9.9c0,1.5-1.3,2.8-2.9,2.8v0.5h9.9v-0.5c-1.6,0-2.9-1.3-2.9-2.8v0v-9.9h0.5l6.6,10.8
			l0,0c0.9,1.5,2.5,2.4,4.2,2.4h4.6v-0.4c-2.4-1-4.4-2.7-5.7-4.9l0,0l-5.1-8.4c2.8-0.9,5.2-2.9,6.6-5.6l0,0c1.5-2.6,0.5-6-2.1-7.4
			c-0.8-0.5-1.7-0.7-2.6-0.7H77.6c-3,0-5.4,2.4-5.5,5.4C72.1,40.2,72.1,40.2,72.1,40.2z M88.6,37.8c0-0.6,0.4-1.2,0.9-1.4l0.2-0.1
			c0.6-0.2,1.2-0.4,1.8-0.4c2.4,0,4.4,1.9,4.4,4.3c0,0,0,0,0,0v3.2c0,2.4-2,4.4-4.4,4.3c-0.7,0-1.4-0.2-2-0.5
			c-0.6-0.3-0.9-0.8-0.9-1.4L88.6,37.8z M77.1,40.2c0-2.4,2-4.4,4.4-4.3c0,0,0,0,0,0c0.6,0,1.2,0.1,1.8,0.4l0.2,0.1
			c0.6,0.3,0.9,0.8,0.9,1.4v8.1c0,0.6-0.4,1.2-0.9,1.4c-0.6,0.3-1.3,0.5-2,0.5c-2.4,0-4.4-1.9-4.4-4.3L77.1,40.2z"/>
		<path class="st1" d="M157.6,26.4c-10.4,4.1-20.6,7.3-31.2,7.8c-1.5,2.3-2.7,4.8-3.5,7.4c0-2.3,0.1-5.2,0.1-7.5
			c26.1-5.7,47.1-12.4,48.4-33.5c-16.1,12.7-34.4,21.8-53.1,30.2c1.4,7.1,1.6,13.4,0.6,18.8c-0.3-10.5-9-19.3-21.2-22.8v1.4
			c10.8,3.2,18.3,10.9,18.3,19.9c0,11.9-13.3,21.5-29.7,21.5S56.6,60,56.6,48.1c0-9,7.6-16.6,18.3-19.9v-1.4
			c-12.2,3.5-20.9,12.3-21.2,22.8c-1-5.4-0.8-11.7,0.6-18.8c-18.7-8.4-37-17.4-53.1-30.2c1.3,21.1,22.3,27.8,48.4,33.5
			c0,2.3,0,5.2,0,7.5c-0.8-2.6-2-5.1-3.5-7.4c-10.6-0.5-20.8-3.7-31.2-7.8c-2.3-0.7-4.7-0.7-7,0.1C17.2,37.6,29.5,44.8,47.2,45
			l2.7,4.3c-0.7-0.4-1.3-0.9-1.9-1.4c-6.2,0.3-12.3-0.8-18-3.1c-2.5-0.4-4.8-0.5-6.4,0.2c8.2,6.4,17.3,10.3,27.9,10
			c1,2.4,2.8,4.4,5.1,5.7l0,0c5.2,8.6,16.5,14.5,29.6,14.5s24.4-5.9,29.6-14.5l0,0c2.3-1.3,4.1-3.3,5.1-5.7
			c10.6,0.4,19.7-3.6,27.9-10c-1.6-0.7-3.9-0.6-6.4-0.2c-5.7,2.3-11.8,3.4-18,3.1c-0.5,0.5-1.1,1-1.7,1.4c0.9-1.4,1.8-2.9,2.7-4.3
			c17.7-0.2,30-7.4,39.2-18.5C162.3,25.7,159.8,25.7,157.6,26.4z"/>
		<g>
			<path class="st2" d="M126.3,33.4c-0.9-1.6-1.8-3.4-2.5-5.1c16.7-7.7,33.1-16.2,47.5-27.6C170.1,20.8,150.8,27.8,126.3,33.4
				 M134.7,44.2c-3.1-2.9-5.8-6.3-8-9.9c10.4-0.5,20.6-3.7,30.8-7.8c2.3-0.7,4.7-0.7,7,0.1C157,35.5,147.6,42,134.7,44.2L134.7,44.2
				z M141.9,49.7c-1.6-1-3.1-2.1-4.5-3.2c1.8-0.5,3.4-1,5.1-1.7c2.5-0.4,4.8-0.5,6.4,0.2C146.7,46.7,144.3,48.3,141.9,49.7
				L141.9,49.7z"/>
		</g>
		<g>
			<path class="st5" d="M72.1,40.2c0,0.9,0.2,1.9,0.7,2.7l0,0c1.4,2.7,3.7,4.7,6.6,5.6l-5.1,8.4l0,0c-1.3,2.2-3.3,3.9-5.7,4.9v0.4
				h4.6c1.7,0,3.3-0.9,4.2-2.4l0,0L84,49h0.5v9.9c0,1.5-1.3,2.8-2.9,2.8v0.5h9.9v-0.5c-1.6,0-2.9-1.3-2.9-2.8v0v-9.9h0.5l6.6,10.8
				l0,0c0.9,1.5,2.5,2.4,4.2,2.4h4.6v-0.4c-2.4-1-4.4-2.7-5.7-4.9l0,0l-5.1-8.4c2.8-0.9,5.2-2.9,6.6-5.6l0,0c1.5-2.6,0.5-6-2.1-7.4
				c-0.8-0.5-1.7-0.7-2.6-0.7H77.6c-3,0-5.4,2.4-5.5,5.4C72.1,40.2,72.1,40.2,72.1,40.2z M88.6,37.8c0-0.6,0.4-1.2,0.9-1.4l0.2-0.1
				c0.6-0.2,1.2-0.4,1.8-0.4c2.4,0,4.4,1.9,4.4,4.3c0,0,0,0,0,0v3.2c0,2.4-2,4.4-4.4,4.3c-0.7,0-1.4-0.2-2-0.5
				c-0.6-0.3-0.9-0.8-0.9-1.4L88.6,37.8z M77.1,40.2c0-2.4,2-4.4,4.4-4.3c0,0,0,0,0,0c0.6,0,1.2,0.1,1.8,0.4l0.2,0.1
				c0.6,0.3,0.9,0.8,0.9,1.4v8.1c0,0.6-0.4,1.2-0.9,1.4c-0.6,0.3-1.3,0.5-2,0.5c-2.4,0-4.4-1.9-4.4-4.3L77.1,40.2z"/>
		</g>
		<g>
			<path class="st5" d="M142.5,44.8c-5.7,2.3-11.8,3.4-18,3.1c-0.5,0.5-1.2,1-1.8,1.4c0.9-1.4,1.8-2.9,2.7-4.3
				c13.6-0.1,24-4.4,32.3-11.5c-1.3-1.9-2.8-3.7-4.3-5.4c-8.9,3.3-17.8,5.8-26.9,6.2c-1.5,2.3-2.7,4.8-3.5,7.4
				c0-2.3,0.1-5.2,0.1-7.5c10.6-2.3,20.3-4.8,28.2-8.3c-2.5-2.5-5.3-4.9-8.2-6.9c-8.1,4.3-16.3,8.2-24.7,11.9
				c1.4,7.1,1.6,13.4,0.6,18.8c-0.3-10.5-9-19.3-21.2-22.8v1.4c10.8,3.2,18.3,10.9,18.3,19.9c0,11.9-13.3,21.5-29.7,21.5
				S56.7,60,56.7,48.1c0-9,7.6-16.6,18.3-19.9v-1.4c-12.2,3.5-20.9,12.3-21.2,22.8c-0.5-2.9-0.7-5.7-0.6-8.6c-1.3,2.6-2.5,5.3-3.4,8
				l0.2,0.3l-0.2-0.1c-0.6,1.9-1.2,3.8-1.7,5.7c1.2,0.1,2.4,0.1,3.6,0c1,2.4,2.8,4.4,5.1,5.7l0,0c5.2,8.6,16.5,14.5,29.6,14.5
				s24.4-5.9,29.6-14.5l0,0c2.3-1.3,4.1-3.3,5.1-5.7c10.6,0.4,19.7-3.6,27.9-10C147.3,44.2,145,44.4,142.5,44.8z"/>
		</g>
		<g>
			<path class="st2" d="M83.3,36.2c-0.6-0.2-1.2-0.4-1.8-0.4c-2.4,0-4.4,1.9-4.4,4.3c0,0,0,0,0,0v3.2c0,2.4,2,4.4,4.4,4.3
				c0.7,0,1.4-0.2,2-0.5c0.6-0.3,0.9-0.8,0.9-1.4v-8.1c0-0.6-0.4-1.2-0.9-1.4L83.3,36.2 M69.9,66c-1.9,0.9-3.9,1.7-6,2.4
				c-2.9-2.1-5.3-4.7-7.2-7.7l0,0c-2.3-1.3-4-3.3-5.1-5.7c-10.6,0.4-19.7-3.6-27.9-10c1.6-0.7,3.9-0.6,6.4-0.2
				c5.7,2.3,11.8,3.4,18,3.1c0.6,0.6,1.2,1,1.9,1.4l-2.7-4.3C32,44.8,20.8,39.4,12.1,30.8c0-0.3,0-0.7,0-1c0-1.3,0.1-2.7,0.2-4
				c0.9,0,1.9,0.2,2.8,0.6c10.4,4.1,20.6,7.3,31.2,7.8c1.5,2.3,2.7,4.8,3.5,7.4c0-2.3,0-5.2,0-7.5c-14.7-3.2-27.8-6.8-36.7-13
				c0.7-3.4,1.9-6.7,3.5-9.7c12,7.5,24.8,13.6,37.8,19.4c-1.4,7.1-1.6,13.4-0.6,18.8c0.3-10.5,9-19.3,21.2-22.8v1.4
				c-10.8,3.2-18.3,10.9-18.3,19.9C56.7,55.6,61.9,62.1,69.9,66L69.9,66z M92.1,34.8L92,35.9c-0.2,0-0.3,0-0.5,0
				c-0.6,0-1.2,0.1-1.8,0.4l-0.2,0.1c-0.6,0.3-0.9,0.8-0.9,1.4v8.1c0,0.3,0.1,0.5,0.2,0.8c-1.2,2.6-2.6,5-4.4,7.3v-5h-0.5l-6.6,10.8
				l0,0c-0.9,1.5-2.5,2.4-4.2,2.4h-4.5v-0.4c2.4-1,4.4-2.7,5.7-4.9l0,0l5.1-8.4c-2.8-0.9-5.2-2.9-6.6-5.6l0,0
				c-1.5-2.6-0.5-6,2.1-7.4c0.8-0.5,1.7-0.7,2.6-0.7L92.1,34.8L92.1,34.8z"/>
		</g>
		<g>
			<path class="st4" d="M28.6,44.6c-0.9,0.7-1.9,1.2-2.9,1.8c-0.6-0.4-1.3-0.9-1.9-1.4C25.3,44.4,27,44.3,28.6,44.6 M39.9,33.6
				c-2.4,3.3-5.3,6.4-8.6,8.9c-9.5-3-17-8.7-23.2-16.1c2.3-0.8,4.7-0.8,7-0.1C23.3,29.7,31.5,32.4,39.9,33.6L39.9,33.6z M44.3,26.2
				c-1,2.1-2.1,4.1-3.4,5.9C19,26.7,2.4,19.2,1.3,0.6C14.4,11,29.1,19,44.3,26.2L44.3,26.2z"/>
		</g>
		<g>
			<path class="st6" d="M157.6,26.4c-10.4,4.1-20.6,7.3-31.2,7.8c-1.5,2.3-2.7,4.8-3.5,7.4c0-2.3,0.1-5.2,0.1-7.5
				c24.4-5.3,44.3-11.5,47.9-29.4c-0.9-0.5-1.9-1-2.9-1.4c-15.2,11.3-32.3,19.7-49.7,27.5c1.4,7.1,1.6,13.4,0.6,18.8
				c-0.2-8-5.4-15.1-13.4-19.5c-0.1,0.4-0.3,0.9-0.4,1.4c6.7,3.9,10.9,9.9,10.9,16.6c0,6-3.4,11.5-9,15.4c0.7,1.5,1.4,3,2.3,4.4
				c2.7-2,4.9-4.5,6.7-7.3l0,0c2.3-1.3,4.1-3.3,5.1-5.7c10.6,0.4,19.7-3.6,27.9-10c-1.6-0.7-3.9-0.6-6.4-0.2
				c-5.7,2.3-11.8,3.4-18,3.1c-0.5,0.6-1.2,1.1-1.8,1.5c0.9-1.4,1.8-2.9,2.7-4.3c17.7-0.2,30-7.4,39.2-18.5
				C162.3,25.7,159.8,25.7,157.6,26.4z"/>
		</g>
	</g>
</g>
</svg>
