<?xml version="1.0" encoding="utf-8"?>
<!-- Generator: Adobe Illustrator 25.4.1, SVG Export Plug-In . SVG Version: 6.00 Build 0)  -->
<svg version="1.1" id="Layer_1" xmlns="http://www.w3.org/2000/svg" xmlns:xlink="http://www.w3.org/1999/xlink" x="0px" y="0px"
	 viewBox="0 0 200 100" style="enable-background:new 0 0 200 100;" xml:space="preserve">
<style type="text/css">
	.st0{fill-rule:evenodd;clip-rule:evenodd;fill:#BD9643;}
	.st1{filter:url(#Adobe_OpacityMaskFilter);}
	.st2{clip-path:url(#SVGID_00000054256600570911532590000006287422427524226446_);}
	.st3{mask:url(#SVGID_1_);fill-rule:evenodd;clip-rule:evenodd;fill:#DACC77;}
	.st4{filter:url(#Adobe_OpacityMaskFilter_00000131347379352229607840000001104768958203395977_);}
	.st5{clip-path:url(#SVGID_00000005954924927843734250000002372441710490638476_);}
	.st6{mask:url(#SVGID_00000011748362477013012280000002772123125300520339_);fill-rule:evenodd;clip-rule:evenodd;fill:#F6E89C;}
	.st7{filter:url(#Adobe_OpacityMaskFilter_00000168085703137565626550000009134789470446885815_);}
	.st8{clip-path:url(#SVGID_00000093138747377828123150000011859899586700998841_);}
	.st9{mask:url(#SVGID_00000003814639390990465680000015947913463834533522_);fill-rule:evenodd;clip-rule:evenodd;fill:#A8802B;}
	.st10{filter:url(#Adobe_OpacityMaskFilter_00000122686138917884007100000003871618105616414088_);}
	.st11{clip-path:url(#SVGID_00000017487958903674400150000001336923939511671971_);}
	.st12{mask:url(#SVGID_00000170275381217584951900000002145682115993703821_);fill-rule:evenodd;clip-rule:evenodd;fill:#A8802B;}
	.st13{filter:url(#Adobe_OpacityMaskFilter_00000013194324746815478690000007383740229600502695_);}
	.st14{clip-path:url(#SVGID_00000181057967280632318200000002652095116350442903_);}
	.st15{mask:url(#SVGID_00000098916433187343579580000007064182852492506775_);fill-rule:evenodd;clip-rule:evenodd;fill:#F6E89C;}
	.st16{filter:url(#Adobe_OpacityMaskFilter_00000018233296565193273030000004851758490260035970_);}
	.st17{clip-path:url(#SVGID_00000169533614439501179500000000933442128494508438_);}
	.st18{mask:url(#SVGID_00000023251551583540064980000015773519371572405124_);fill-rule:evenodd;clip-rule:evenodd;fill:#DACC77;}
	.st19{filter:url(#Adobe_OpacityMaskFilter_00000053536663990310868840000017053626524766229133_);}
	.st20{clip-path:url(#SVGID_00000011026605243539883110000006608748507134947216_);}
	.st21{mask:url(#SVGID_00000091702949736151635810000011294163381284418994_);fill-rule:evenodd;clip-rule:evenodd;fill:#DACC77;}
	.st22{filter:url(#Adobe_OpacityMaskFilter_00000183967953699241795590000003433115712286287024_);}
	.st23{clip-path:url(#SVGID_00000176012967538599030010000016872815690966066621_);}
	.st24{mask:url(#SVGID_00000138550566498889570550000001043650096424788142_);fill-rule:evenodd;clip-rule:evenodd;fill:#DACC77;}
	.st25{filter:url(#Adobe_OpacityMaskFilter_00000176752063900048438190000008740953776125692818_);}
	.st26{clip-path:url(#SVGID_00000095315008088066965350000012934434694741303734_);}
	.st27{mask:url(#SVGID_00000069381344761757767280000003236409045083513988_);fill-rule:evenodd;clip-rule:evenodd;fill:#DACC77;}
	.st28{filter:url(#Adobe_OpacityMaskFilter_00000181787930103472716590000014334657445757278611_);}
	.st29{clip-path:url(#SVGID_00000038398875099779863960000009636523569142265521_);}
	.st30{clip-path:url(#SVGID_00000128449532391015744470000000883839013565199549_);}
	.st31{mask:url(#SVGID_00000025408288480053255490000007751449138127261585_);fill-rule:evenodd;clip-rule:evenodd;fill:#A8802B;}
	.st32{filter:url(#Adobe_OpacityMaskFilter_00000095331577490714720870000008232234736954207889_);}
	.st33{clip-path:url(#SVGID_00000086675740144010121370000002981846076125079425_);}
	.st34{clip-path:url(#SVGID_00000068665887135081595000000017620083006913064603_);}
	.st35{mask:url(#SVGID_00000126289870248258187150000015079319614862114957_);}
	.st36{fill-rule:evenodd;clip-rule:evenodd;fill:#A8802B;}
	.st37{fill:#B79646;}
</style>
<path class="st0" d="M95.9,36.4c-0.5-0.2-1.1-0.4-1.8-0.4c-2.5,0-4.4,1.9-4.4,4.3c0,1.1,0,2.1,0,3.3c0,2.4,2,4.3,4.4,4.3
	c0.7,0,1.4-0.2,2-0.5c0.5-0.3,0.9-0.8,0.9-1.4V38c0-0.6-0.4-1.2-0.9-1.4C96.1,36.5,96,36.5,95.9,36.4 M101.2,38v8.1
	c0,0.6,0.4,1.2,0.9,1.4c0.6,0.3,1.3,0.5,2,0.5c2.5,0,4.4-1.9,4.4-4.3c0-1.1,0-2.1,0-3.3c0-2.4-2-4.3-4.4-4.3c-0.6,0-1.2,0.1-1.8,0.4
	c-0.1,0-0.2,0.1-0.2,0.1C101.6,36.8,101.2,37.3,101.2,38z M128.6,60.8L128.6,60.8c2.3-1.2,3.9-3.3,5.1-5.7c10.1,0.4,18.7-3.2,26.6-9
	c0.3-0.3,2.9-0.2,2.6-0.3l-1.3-0.6c-1.6-0.7-3.9-0.6-6.4-0.2c-5.2,1.9-9.8,3.3-18,3.1c-0.7,0.6-1.2,1.1-1.9,1.4
	c0.9-1.4,1.8-2.9,2.7-4.3c17.3-0.1,31.3-7.2,40.5-17.8l-1.3-0.6c-2.2-0.6-4.6-1-7-0.1c-10.4,4.1-20.6,7.3-31.2,7.8
	c-1.7,2.5-2.7,5-3.5,7.4c0-2.3,0-5.2,0-7.5c24.8-5.4,37.7-14.6,48.1-30.4l1.6-2.5L184,0.8c-16.1,12.7-34.4,21.8-53.1,30.2
	c1.4,7.1,1.6,13.4,0.6,18.8c-0.3-10.5-9.1-19.3-21.2-22.8v1.4l1.3,0.6c0.4,0.2,0.1-0.2,0.5-0.1c9.8,3.5,16.6,10.8,16.6,19.3
	c0,11.9-13.3,21.5-29.7,21.5c-16.4,0-29.7-9.6-29.7-21.5c0-9,7.6-16.6,18.3-19.9l1.3-0.7L87.6,27c-12.2,3.5-20.9,12.3-21.2,22.8
	c-1-5.3-0.8-11.4,0.5-18.3c0-0.1,1.5,0.1,1.4,0.1L67,31C48.9,22.9,30.9,13.6,15.2,1.5l-1.3-0.6c1.3,21.1,22.3,27.8,48.4,33.5
	c0,2.3,0,5.2,0,7.5c-0.8-2.3-0.7-4.4-2.2-6.8l-1.3-0.6c-10.6-0.5-20.8-3.7-31.2-7.8c-2.3-0.9-4.7-0.5-7,0.1
	C30,37.8,42.2,45,59.9,45.2c0.9,1.4,1.8,2.9,2.7,4.3c-0.4-0.2-0.1-0.5-0.6-0.8L60.7,48c-8.2,0.2-12.8-1.2-18-3.1
	c-2.5-0.4-4.8-0.5-6.4,0.2c8.2,6.4,17.3,10.3,27.9,9.9c1.2,2.4,2.8,4.5,5.1,5.7l0,0c5.2,8.6,16.5,14.5,29.6,14.5
	C112.1,75.3,123.4,69.4,128.6,60.8z M96.6,49.2L90,60l0,0c-0.9,1.4-2.4,2.4-4.2,2.4L82.5,63l-1.3-0.6v-0.4c2.4-1,4.4-2.7,5.7-4.9h0
	h0l5.1-8.4c-2.9-0.9-5.2-3-6.6-5.6l0,0c-0.4-0.8-0.7-1.7-0.7-2.7c0-3,2.4-5.4,5.4-5.4h8.3v0h1.2v0h8.3c3,0,5.4,2.4,5.4,5.4
	c0,1-0.3,1.9-0.7,2.7l0,0c-1.4,2.6-3.7,4.7-6.6,5.6l5.1,8.4h0h0c1.4,2.4,5.7,4.9,5.7,5.3h-4.6c-0.4,0-0.7,0-1.1-0.1l-0.1,0.1
	l-1.4-0.7c-0.6-0.4-1.2-1-1.6-1.6l0,0l-6.6-10.8c-0.2,0-0.3,0-0.5-0.1V59c0,1.6,1.3,2.8,2.8,2.8l1.3,0.6l-0.4,0.2l-0.9-0.3
	c-4.4,0-4.4,0.6-8.6,0.6c-0.2,0-1.1-0.6-1.3-0.6v-0.5c1.6,0,2.8-1.3,2.8-2.8v-9.9C96.9,49.1,96.8,49.2,96.6,49.2z"/>
<defs>
	<filter id="Adobe_OpacityMaskFilter" filterUnits="userSpaceOnUse" x="74.2" y="27" width="45.2" height="33.9">
		<feColorMatrix  type="matrix" values="1 0 0 0 0  0 1 0 0 0  0 0 1 0 0  0 0 0 1 0"/>
	</filter>
</defs>
<mask maskUnits="userSpaceOnUse" x="74.2" y="27" width="45.2" height="33.9" id="SVGID_1_">
	<g class="st1">
		<g>
			<g>
				<defs>
					<rect id="SVGID_00000032618586739006031730000015424825080208437660_" x="74.2" y="27" width="45.2" height="33.9"/>
				</defs>
				<clipPath id="SVGID_00000116943429961538957920000015365975526483396243_">
					<use xlink:href="#SVGID_00000032618586739006031730000015424825080208437660_"  style="overflow:visible;"/>
				</clipPath>
				<g>
					<defs>
						<rect id="SVGID_00000147922272103649126520000006999322296940416955_" x="74.2" y="27" width="45.2" height="33.9"/>
					</defs>
					
						<clipPath id="SVGID_00000060718283104790445850000011585074787190238619_" style="clip-path:url(#SVGID_00000116943429961538957920000015365975526483396243_);">
						<use xlink:href="#SVGID_00000147922272103649126520000006999322296940416955_"  style="overflow:visible;"/>
					</clipPath>
					<g style="clip-path:url(#SVGID_00000060718283104790445850000011585074787190238619_);">
						
							<image style="overflow:visible;" width="189" height="142" xlink:href="90E51F63.jpg"  transform="matrix(0.24 0 0 0.24 74.16 26.88)">
						</image>
					</g>
				</g>
			</g>
		</g>
	</g>
</mask>
<path class="st3" d="M95.9,36.4c-0.5-0.2-1.1-0.4-1.8-0.4c-2.5,0-4.4,1.9-4.4,4.3c0,1.1,0,2.1,0,3.3c0,2.4,2,4.3,4.4,4.3
	c0.7,0,1.4-0.2,2-0.5c0.5-0.3,0.9-0.8,0.9-1.4V38c0-0.6-0.4-1.2-0.9-1.4C96.1,36.5,96,36.5,95.9,36.4 M101.2,38v8.1
	c0,0.6,0.4,1.2,0.9,1.4c0.6,0.3,1.3,0.5,2,0.5c2.5,0,4.4-1.9,4.4-4.3c0-1.1,0-2.1,0-3.3c0-2.4-2-4.3-4.4-4.3c-0.6,0-1.2,0.1-1.8,0.4
	c-0.1,0-0.2,0.1-0.2,0.1C101.6,36.8,101.2,37.3,101.2,38z M74.2,36.5c0.1-0.8,0.2-1.7,0.3-2.5c3.5-3.1,8-5.5,13.1-6.9l1.3,0.6
	l-1.3,0.7C82.1,30.1,77.4,32.9,74.2,36.5z M111,56.3c-1.1,0.8-2.3,1.6-3.5,2.2l-5.7-9.3c-0.2,0-0.3,0-0.5-0.1V59
	c0,0.5,0.2,1.1,0.4,1.5c-1.5,0.3-3,0.5-4.6,0.5c-0.3,0-0.5,0-0.7,0c0.5-0.5,0.7-1.2,0.7-1.9v-9.9c-0.2,0-0.3,0-0.5,0.1l-6.5,10.7
	c-1.4-0.4-2.7-1-3.9-1.7c0.3-0.4,0.5-0.7,0.7-1.1h0h0l5.1-8.4c-2.9-0.9-5.2-3-6.6-5.6l0,0c-0.4-0.8-0.7-1.7-0.7-2.7
	c0-3,2.4-5.4,5.4-5.4h8.3v0h1.2v0h8.3c3,0,5.4,2.4,5.4,5.4c0,1-0.3,1.9-0.7,2.7l0,0c-1.4,2.6-3.7,4.7-6.6,5.6L111,56.3z M118.9,30.7
	c0.2,0.7,0.4,1.4,0.6,2.1c-2.2-1.5-4.7-2.8-7.4-3.7c-0.4-0.1-0.1,0.3-0.5,0.1l-1.3-0.6V27C113.4,27.9,116.3,29.2,118.9,30.7z"/>
<defs>
	
		<filter id="Adobe_OpacityMaskFilter_00000058570863613316093790000015735548033140409987_" filterUnits="userSpaceOnUse" x="48.4" y="38.2" width="43.7" height="35.8">
		<feColorMatrix  type="matrix" values="1 0 0 0 0  0 1 0 0 0  0 0 1 0 0  0 0 0 1 0"/>
	</filter>
</defs>
<mask maskUnits="userSpaceOnUse" x="48.4" y="38.2" width="43.7" height="35.8" id="SVGID_00000018931646541945822010000016059153979651070612_">
	<g style="filter:url(#Adobe_OpacityMaskFilter_00000058570863613316093790000015735548033140409987_);">
		<g>
			<g>
				<defs>
					<rect id="SVGID_00000155828741495567779460000006657203056573141685_" x="48.4" y="38.2" width="43.7" height="35.8"/>
				</defs>
				<clipPath id="SVGID_00000009573043011526732780000009412914555230476209_">
					<use xlink:href="#SVGID_00000155828741495567779460000006657203056573141685_"  style="overflow:visible;"/>
				</clipPath>
				<g>
					<defs>
						<rect id="SVGID_00000094581331735505690280000006338547441279289250_" x="48.4" y="38.2" width="43.7" height="35.8"/>
					</defs>
					
						<clipPath id="SVGID_00000160187835567718779880000009435113015318513801_" style="clip-path:url(#SVGID_00000009573043011526732780000009412914555230476209_);">
						<use xlink:href="#SVGID_00000094581331735505690280000006338547441279289250_"  style="overflow:visible;"/>
					</clipPath>
					<g style="clip-path:url(#SVGID_00000160187835567718779880000009435113015318513801_);">
						
							<image style="overflow:visible;" width="183" height="150" xlink:href="90E51F64.jpg"  transform="matrix(0.24 0 0 0.24 48.24 38.16)">
						</image>
					</g>
				</g>
			</g>
		</g>
	</g>
</mask>
<path style="mask:url(#SVGID_00000018931646541945822010000016059153979651070612_);fill-rule:evenodd;clip-rule:evenodd;fill:#F6E89C;" d="
	M90.3,51.4c0.8,1.6,1.3,3.4,1.7,5.2L90,60l0,0c-0.9,1.4-2.4,2.4-4.2,2.4L82.5,63l-1.3-0.6v-0.4c2.4-1,4.4-2.7,5.7-4.9h0h0L90.3,51.4
	z M70.6,38.2c0.7,0,1.4,0.1,2.1,0.2c-2.1,3-3.3,6.3-3.3,9.9c0,9.9,9.2,18.2,21.8,20.7c-0.7,1.8-1.5,3.5-2.6,5
	c-8.5-2.2-15.4-7-19.1-13.2l0,0c-2.3-1.2-3.9-3.3-5.1-5.7c-5.7,0.2-11-0.8-15.9-2.9c0.7-1.7,1.7-3.4,2.8-4.9
	c2.7,0.5,5.7,0.7,9.6,0.6l1.3,0.6c0.5,0.2,0.2,0.6,0.6,0.8c-0.9-1.4-1.8-2.9-2.7-4.3c-2.2,0-4.4-0.2-6.5-0.4
	c2.3-2.3,5.2-4.1,8.3-5.2c0.2,0.8,0.3,1.5,0.6,2.3c0-0.8,0-1.6,0-2.5c1.2-0.4,2.4-0.7,3.6-0.9c-0.3,4.1-0.2,7.9,0.4,11.4
	C66.5,45.6,68,41.6,70.6,38.2z"/>
<defs>
	
		<filter id="Adobe_OpacityMaskFilter_00000147189975635594846720000005383873878970514580_" filterUnits="userSpaceOnUse" x="104.6" y="31.4" width="45.8" height="41.2">
		<feColorMatrix  type="matrix" values="1 0 0 0 0  0 1 0 0 0  0 0 1 0 0  0 0 0 1 0"/>
	</filter>
</defs>
<mask maskUnits="userSpaceOnUse" x="104.6" y="31.4" width="45.8" height="41.2" id="SVGID_00000147912485609475658650000000264046042205940925_">
	<g style="filter:url(#Adobe_OpacityMaskFilter_00000147189975635594846720000005383873878970514580_);">
		<g>
			<g>
				<defs>
					<rect id="SVGID_00000080193809906017792820000016332019108902026160_" x="104.6" y="31.4" width="45.8" height="41.2"/>
				</defs>
				<clipPath id="SVGID_00000163758575990083715550000010160502177020486583_">
					<use xlink:href="#SVGID_00000080193809906017792820000016332019108902026160_"  style="overflow:visible;"/>
				</clipPath>
				<g>
					<defs>
						<rect id="SVGID_00000150083332087769144920000014483301645096793480_" x="104.6" y="31.4" width="45.8" height="41.2"/>
					</defs>
					
						<clipPath id="SVGID_00000042005428546170504090000010767218554592384898_" style="clip-path:url(#SVGID_00000163758575990083715550000010160502177020486583_);">
						<use xlink:href="#SVGID_00000150083332087769144920000014483301645096793480_"  style="overflow:visible;"/>
					</clipPath>
					
						<g transform="matrix(1 0 0 1 0 1.907349e-06)" style="clip-path:url(#SVGID_00000042005428546170504090000010767218554592384898_);">
						
							<image style="overflow:visible;" width="192" height="173" xlink:href="90E51F65.jpg"  transform="matrix(0.24 0 0 0.24 104.4 31.2)">
						</image>
					</g>
				</g>
			</g>
		</g>
	</g>
</mask>
<path style="mask:url(#SVGID_00000147912485609475658650000000264046042205940925_);fill-rule:evenodd;clip-rule:evenodd;fill:#A8802B;" d="
	M104.6,53.8c0-2.1,0.3-4.1,0.9-6c1.8-0.5,3.2-2.2,3.2-4.2v-2.6c1.1-1.5,2.3-2.9,3.7-4.2c0.8,0.9,1.3,2.2,1.3,3.5
	c0,1-0.3,1.9-0.7,2.7l0,0c-1.4,2.6-3.7,4.7-6.6,5.6l5.1,8.4h0h0c1.3,2.2,3.3,3.9,5.7,4.9v0.4h-4.6c-1.8,0-3.3-0.9-4.2-2.4l0,0
	L104.6,53.8z M131,31.4c2.5,0.4,4.9,1.2,7.1,2.3c-0.8,0.2-1.7,0.4-2.6,0.6c0,2.3,0,5.2,0,7.5c0.8-2.4,1.8-4.9,3.5-7.4l0.3,0
	c3.9,2.3,7,5.7,8.9,9.8c-3.3,0.6-6.7,0.9-10.2,0.9c-0.9,1.4-1.8,2.9-2.7,4.3c0.7-0.3,1.2-0.9,1.9-1.4c5.1,0.1,8.8-0.3,12.1-1.2
	c0.5,1.6,0.9,3.3,1.1,5.1c-5.2,2.2-10.7,3.4-16.7,3.2c-1.2,2.4-2.8,4.5-5.1,5.7l0,0c-3,5.1-8.2,9.2-14.7,11.7
	c-1.6-1.2-3.1-2.6-4.4-4.2c11.2-3.1,19.1-10.9,19.1-20.1c0-6.2-3.6-11.7-9.3-15.6c0.6-0.2,1.1-0.4,1.7-0.6
	c6.3,4.4,10.3,10.7,10.5,17.7C132.5,44.5,132.3,38.3,131,31.4z"/>
<defs>
	
		<filter id="Adobe_OpacityMaskFilter_00000012460714389005366540000009133189456483251856_" filterUnits="userSpaceOnUse" x="41" y="22.1" width="45.9" height="39.1">
		<feColorMatrix  type="matrix" values="1 0 0 0 0  0 1 0 0 0  0 0 1 0 0  0 0 0 1 0"/>
	</filter>
</defs>
<mask maskUnits="userSpaceOnUse" x="41" y="22.1" width="45.9" height="39.1" id="SVGID_00000116934757102423984750000008219383669183994551_">
	<g style="filter:url(#Adobe_OpacityMaskFilter_00000012460714389005366540000009133189456483251856_);">
		<g>
			<g>
				<defs>
					<rect id="SVGID_00000029749408434288589090000006550816991602374289_" x="41" y="22.1" width="45.9" height="39"/>
				</defs>
				<clipPath id="SVGID_00000175310207570809591510000007847654432977774224_">
					<use xlink:href="#SVGID_00000029749408434288589090000006550816991602374289_"  style="overflow:visible;"/>
				</clipPath>
				<g>
					<defs>
						<rect id="SVGID_00000116198624379728519480000009505590543775298434_" x="41" y="22.1" width="45.9" height="39"/>
					</defs>
					
						<clipPath id="SVGID_00000096747357058584279970000014900136598287779975_" style="clip-path:url(#SVGID_00000175310207570809591510000007847654432977774224_);">
						<use xlink:href="#SVGID_00000116198624379728519480000009505590543775298434_"  style="overflow:visible;"/>
					</clipPath>
					<g style="clip-path:url(#SVGID_00000096747357058584279970000014900136598287779975_);">
						
							<image style="overflow:visible;" width="192" height="164" xlink:href="90E51F66.jpg"  transform="matrix(0.24 0 0 0.24 41.04 21.84)">
						</image>
					</g>
				</g>
			</g>
		</g>
	</g>
</mask>
<path style="mask:url(#SVGID_00000116934757102423984750000008219383669183994551_);fill-rule:evenodd;clip-rule:evenodd;fill:#A8802B;" d="
	M86.8,36.2c0.1,0.9,0.2,1.8,0.2,2.7c0,1.9-0.2,3.8-0.7,5.6c-0.3-0.4-0.6-0.9-0.8-1.3l0,0c-0.4-0.8-0.7-1.7-0.7-2.7
	C84.8,38.7,85.6,37.2,86.8,36.2 M84.3,28.2c0.2,0.4,0.4,0.8,0.6,1.2C75.6,33,69.3,40.1,69.3,48.3c0,4.2,1.6,8,4.5,11.3
	c-1.3,0.6-2.8,1.1-4.2,1.5c-0.1-0.1-0.1-0.2-0.2-0.3l0,0c-2.3-1.2-3.9-3.3-5.1-5.7c-7.4,0.3-14.1-1.6-20.2-4.9
	c-1-1.7-1.7-3.5-2.2-5.4c0.3,0,0.6,0.1,0.9,0.1c5.2,1.9,9.8,3.3,18,3.1l1.3,0.6c0.5,0.2,0.2,0.6,0.6,0.8c-0.9-1.4-1.8-2.9-2.7-4.3
	c-7-0.1-13.2-1.2-18.7-3.3c-0.1-1-0.2-2-0.2-3c0-2.5,0.4-4.9,1.2-7.2c5.5,1.5,11,2.6,16.7,2.8l1.3,0.6c1.6,2.4,1.4,4.5,2.2,6.8
	c0-2.3,0-5.2,0-7.5c-6.9-1.5-13.4-3.1-19.3-5c1.3-2.8,3.1-5.3,5.3-7.3c6.2,3.2,12.4,6.1,18.7,8.9l1.3,0.6c0.1,0.1-1.4-0.2-1.4-0.1
	c-1.3,6.9-1.5,13-0.5,18.3C66.7,40.3,73.9,32.2,84.3,28.2z"/>
<defs>
	
		<filter id="Adobe_OpacityMaskFilter_00000031201211504254627870000002875350521768473227_" filterUnits="userSpaceOnUse" x="26.3" y="26.4" width="38.6" height="28.7">
		<feColorMatrix  type="matrix" values="1 0 0 0 0  0 1 0 0 0  0 0 1 0 0  0 0 0 1 0"/>
	</filter>
</defs>
<mask maskUnits="userSpaceOnUse" x="26.3" y="26.4" width="38.6" height="28.7" id="SVGID_00000179645201576128402610000013765614286487194760_">
	<g style="filter:url(#Adobe_OpacityMaskFilter_00000031201211504254627870000002875350521768473227_);">
		<g>
			<g>
				<defs>
					<rect id="SVGID_00000013900911609394018310000012867859058848672176_" x="26.3" y="26.4" width="38.6" height="28.7"/>
				</defs>
				<clipPath id="SVGID_00000121974400098482170780000013472505342006322067_">
					<use xlink:href="#SVGID_00000013900911609394018310000012867859058848672176_"  style="overflow:visible;"/>
				</clipPath>
				<g>
					<defs>
						<rect id="SVGID_00000098217468952996706200000009583070436928105649_" x="26.3" y="26.4" width="38.6" height="28.7"/>
					</defs>
					
						<clipPath id="SVGID_00000099621009126884815510000015356501989821437863_" style="clip-path:url(#SVGID_00000121974400098482170780000013472505342006322067_);">
						<use xlink:href="#SVGID_00000098217468952996706200000009583070436928105649_"  style="overflow:visible;"/>
					</clipPath>
					<g style="clip-path:url(#SVGID_00000099621009126884815510000015356501989821437863_);">
						
							<image style="overflow:visible;" width="162" height="120" xlink:href="90E51F62.jpg"  transform="matrix(0.24 0 0 0.24 26.16 26.4)">
						</image>
					</g>
				</g>
			</g>
		</g>
	</g>
</mask>
<path style="mask:url(#SVGID_00000179645201576128402610000013765614286487194760_);fill-rule:evenodd;clip-rule:evenodd;fill:#F6E89C;" d="
	M59.7,34.8c0.5,0.6,0.9,1.1,1.3,1.7c0.8,1.8,0.8,3.5,1.4,5.3c0-0.9,0-1.9,0-2.8c1.6,3.1,2.5,6.6,2.5,10.4c0,2-0.3,3.9-0.7,5.7
	c-10.6,0.3-19.6-3.6-27.7-10c1.6-0.7,3.9-0.6,6.4-0.2c5.2,1.9,9.8,3.3,18,3.1l1.3,0.6c0.5,0.2,0.2,0.6,0.6,0.8
	c-0.9-1.4-1.8-2.9-2.7-4.3C45.5,45,34.8,40.2,26.3,32.5c1.8-1.7,3.9-3.1,6.1-4.1c8.8,3.2,17.5,5.6,26.4,6L59.7,34.8z M41.9,26.4
	c6.5,0,12.4,2.7,16.5,7c-8-1.8-15.5-3.8-21.9-6.4C38.3,26.6,40.1,26.4,41.9,26.4z"/>
<defs>
	
		<filter id="Adobe_OpacityMaskFilter_00000170958637576338978330000000012168285203209603_" filterUnits="userSpaceOnUse" x="13.9" y="0.8" width="24.1" height="33.9">
		<feColorMatrix  type="matrix" values="1 0 0 0 0  0 1 0 0 0  0 0 1 0 0  0 0 0 1 0"/>
	</filter>
</defs>
<mask maskUnits="userSpaceOnUse" x="13.9" y="0.8" width="24.1" height="33.9" id="SVGID_00000085238994506773573020000003920795195336952216_">
	<g style="filter:url(#Adobe_OpacityMaskFilter_00000170958637576338978330000000012168285203209603_);">
		<g>
			<g>
				<defs>
					<rect id="SVGID_00000047049333158805731620000017381992298456071050_" x="13.9" y="0.8" width="24.1" height="33.9"/>
				</defs>
				<clipPath id="SVGID_00000016076384086790617190000000358200289991258243_">
					<use xlink:href="#SVGID_00000047049333158805731620000017381992298456071050_"  style="overflow:visible;"/>
				</clipPath>
				<g>
					<defs>
						<rect id="SVGID_00000040572848925053232340000013641848084872701857_" x="13.9" y="0.8" width="24.1" height="33.9"/>
					</defs>
					
						<clipPath id="SVGID_00000097472009176042939780000002478716898267944113_" style="clip-path:url(#SVGID_00000016076384086790617190000000358200289991258243_);">
						<use xlink:href="#SVGID_00000040572848925053232340000013641848084872701857_"  style="overflow:visible;"/>
					</clipPath>
					<g style="clip-path:url(#SVGID_00000097472009176042939780000002478716898267944113_);">
						
							<image style="overflow:visible;" width="101" height="142" xlink:href="90E51F98.jpg"  transform="matrix(0.24 0 0 0.24 13.92 0.72)">
						</image>
					</g>
				</g>
			</g>
		</g>
	</g>
</mask>
<path style="mask:url(#SVGID_00000085238994506773573020000003920795195336952216_);fill-rule:evenodd;clip-rule:evenodd;fill:#DACC77;" d="
	M34.2,29.1c-1.4,2.2-3.3,4.1-5.3,5.6c-3-2.4-5.7-5.1-8.1-8c2.2-0.6,4.6-1,7-0.1C29.9,27.5,32,28.3,34.2,29.1 M38,16.5
	c0,3.6-0.9,7.1-2.4,10.1C23.1,21.4,14.7,13.9,13.9,0.8l1.3,0.6C22.4,7,30.1,12,38,16.5z"/>
<defs>
	
		<filter id="Adobe_OpacityMaskFilter_00000062171637293398912360000005350234363807074996_" filterUnits="userSpaceOnUse" x="137.3" y="10" width="41.2" height="41.4">
		<feColorMatrix  type="matrix" values="1 0 0 0 0  0 1 0 0 0  0 0 1 0 0  0 0 0 1 0"/>
	</filter>
</defs>
<mask maskUnits="userSpaceOnUse" x="137.3" y="10" width="41.2" height="41.4" id="SVGID_00000182492950136589742650000016268432044093280424_">
	<g style="filter:url(#Adobe_OpacityMaskFilter_00000062171637293398912360000005350234363807074996_);">
		<g>
			<g>
				<defs>
					<rect id="SVGID_00000152949936602489645400000011315406243942132147_" x="137.3" y="10" width="41.2" height="41.4"/>
				</defs>
				<clipPath id="SVGID_00000183241764259966221050000014261858313715327373_">
					<use xlink:href="#SVGID_00000152949936602489645400000011315406243942132147_"  style="overflow:visible;"/>
				</clipPath>
				<g>
					<defs>
						<rect id="SVGID_00000068666517769389129420000000591511069860861103_" x="137.3" y="10" width="41.2" height="41.4"/>
					</defs>
					
						<clipPath id="SVGID_00000013150939532031315690000007941178483580851898_" style="clip-path:url(#SVGID_00000183241764259966221050000014261858313715327373_);">
						<use xlink:href="#SVGID_00000068666517769389129420000000591511069860861103_"  style="overflow:visible;"/>
					</clipPath>
					<g style="clip-path:url(#SVGID_00000013150939532031315690000007941178483580851898_);">
						
							<image style="overflow:visible;" width="173" height="174" xlink:href="90E51F99.jpg"  transform="matrix(0.24 0 0 0.24 137.04 9.84)">
						</image>
					</g>
				</g>
			</g>
		</g>
	</g>
</mask>
<path style="mask:url(#SVGID_00000182492950136589742650000016268432044093280424_);fill-rule:evenodd;clip-rule:evenodd;fill:#DACC77;" d="
	M142.6,44.9c-2.1-2.5-3.7-5.6-4.6-8.9c0.3-0.6,0.7-1.1,1-1.7c10.6-0.5,20.8-3.7,31.2-7.8c2.3-0.9,4.7-0.5,7,0.1l1.3,0.6
	C170.1,37,157.7,43.7,142.6,44.9 M151.4,51.5c-2.3-0.9-4.3-2.2-6.2-3.8c3.7-0.5,6.7-1.5,9.9-2.7c2.5-0.4,4.8-0.5,6.4,0.2l1.3,0.6
	c0.4,0.2-2.2,0.1-2.6,0.3C157.4,48.2,154.4,50,151.4,51.5z M171.1,10c1.8,1,3.5,2.2,5,3.7c-9,9.7-20.5,16-38.6,20.2
	c-0.2-1.2-0.3-2.4-0.3-3.6c0-0.8,0-1.5,0.1-2.2C149,22.7,160.4,16.9,171.1,10z"/>
<defs>
	
		<filter id="Adobe_OpacityMaskFilter_00000049927782395928772790000001355608600548544183_" filterUnits="userSpaceOnUse" x="137.7" y="1.5" width="47.5" height="49">
		<feColorMatrix  type="matrix" values="1 0 0 0 0  0 1 0 0 0  0 0 1 0 0  0 0 0 1 0"/>
	</filter>
</defs>
<mask maskUnits="userSpaceOnUse" x="137.7" y="1.5" width="47.5" height="49" id="SVGID_00000059308914242034165580000007491444663526214830_">
	<g style="filter:url(#Adobe_OpacityMaskFilter_00000049927782395928772790000001355608600548544183_);">
		<g>
			<g>
				<defs>
					<rect id="SVGID_00000137132297447401034040000005111027905399640741_" x="137.7" y="1.5" width="47.5" height="49"/>
				</defs>
				<clipPath id="SVGID_00000170994457925291958710000006066904436536310194_">
					<use xlink:href="#SVGID_00000137132297447401034040000005111027905399640741_"  style="overflow:visible;"/>
				</clipPath>
				<g>
					<defs>
						<rect id="SVGID_00000156583527021026481140000013859868053170047390_" x="137.7" y="1.5" width="47.5" height="49"/>
					</defs>
					
						<clipPath id="SVGID_00000152964582389604563460000010129139669806055321_" style="clip-path:url(#SVGID_00000170994457925291958710000006066904436536310194_);">
						<use xlink:href="#SVGID_00000156583527021026481140000013859868053170047390_"  style="overflow:visible;"/>
					</clipPath>
					<g style="clip-path:url(#SVGID_00000152964582389604563460000010129139669806055321_);">
						
							<image style="overflow:visible;" width="199" height="205" xlink:href="90E51F9E.jpg"  transform="matrix(0.24 0 0 0.24 137.52 1.44)">
						</image>
					</g>
				</g>
			</g>
		</g>
	</g>
</mask>
<path style="mask:url(#SVGID_00000059308914242034165580000007491444663526214830_);fill-rule:evenodd;clip-rule:evenodd;fill:#DACC77;" d="
	M140.2,34.2c-0.9-1.6-1.8-3.3-2.5-5.1c16.7-7.7,33.1-16.2,47.5-27.6C184,21.6,164.7,28.6,140.2,34.2 M148.7,45
	c-3.1-2.9-5.8-6.3-8-9.9c10.4-0.5,20.6-3.7,30.8-7.8c2.3-0.9,4.7-0.5,7,0.1C171,36.3,161.5,42.8,148.7,45z M155.8,50.5
	c-1.6-1-3.1-2.1-4.5-3.2c1.7-0.5,3.4-1.1,5.1-1.7c2.5-0.4,4.8-0.5,6.4,0.2C160.5,47.6,158.2,49.1,155.8,50.5z"/>
<defs>
	
		<filter id="Adobe_OpacityMaskFilter_00000144326516846948297930000015374087333605103788_" filterUnits="userSpaceOnUse" x="26" y="12.2" width="80.1" height="57">
		<feColorMatrix  type="matrix" values="1 0 0 0 0  0 1 0 0 0  0 0 1 0 0  0 0 0 1 0"/>
	</filter>
</defs>
<mask maskUnits="userSpaceOnUse" x="26" y="12.2" width="80.1" height="57" id="SVGID_00000122680538044502172710000002474158996803798686_">
	<g style="filter:url(#Adobe_OpacityMaskFilter_00000144326516846948297930000015374087333605103788_);">
		<g>
			<g>
				<defs>
					<rect id="SVGID_00000122001510639747934630000000183600968257990283_" x="26" y="12.2" width="80.1" height="57"/>
				</defs>
				<clipPath id="SVGID_00000054236231001703085630000016869284849221214135_">
					<use xlink:href="#SVGID_00000122001510639747934630000000183600968257990283_"  style="overflow:visible;"/>
				</clipPath>
				<g>
					<defs>
						<rect id="SVGID_00000146460404194412109270000004503387624418589592_" x="26" y="12.2" width="80.1" height="57"/>
					</defs>
					
						<clipPath id="SVGID_00000010274425041915352550000010970215705659409048_" style="clip-path:url(#SVGID_00000054236231001703085630000016869284849221214135_);">
						<use xlink:href="#SVGID_00000146460404194412109270000004503387624418589592_"  style="overflow:visible;"/>
					</clipPath>
					<g style="clip-path:url(#SVGID_00000010274425041915352550000010970215705659409048_);">
						
							<image style="overflow:visible;" width="335" height="239" xlink:href="90E51F9F.jpg"  transform="matrix(0.24 0 0 0.24 25.92 12)">
						</image>
					</g>
				</g>
			</g>
		</g>
	</g>
</mask>
<path style="mask:url(#SVGID_00000122680538044502172710000002474158996803798686_);fill-rule:evenodd;clip-rule:evenodd;fill:#DACC77;" d="
	M97.2,37.1c-0.5-0.2-1.1-0.4-1.8-0.4C93,36.7,91,38.6,91,41c0,1.1,0,2.1,0,3.3c0,2.4,2,4.3,4.4,4.3c0.7,0,1.4-0.2,2-0.5
	c0.5-0.3,0.9-0.8,0.9-1.4v-8.1c0-0.6-0.4-1.2-0.9-1.4C97.4,37.1,97.3,37.1,97.2,37.1 M83.8,66.8c-1.9,0.9-3.9,1.7-6,2.3
	c-3-2.2-5.5-4.8-7.2-7.7l0,0c-2.3-1.2-3.9-3.3-5.1-5.7c-10.6,0.4-19.7-3.6-27.9-9.9c1.6-0.7,3.9-0.6,6.4-0.2c5.2,1.9,9.8,3.3,18,3.1
	c0.7,0.6,1.2,1.1,1.9,1.4c-0.9-1.4-1.8-2.9-2.7-4.3C45.9,45.7,34.7,40.3,26,31.7c0-0.3,0-0.7,0-1c0-1.3,0.1-2.7,0.2-4
	c0.9,0,1.9,0.2,2.8,0.5c10.4,4.1,20.6,7.3,31.2,7.8c1.7,2.5,2.7,5,3.5,7.4c0-2.3,0-5.2,0-7.5c-14.7-3.2-27.8-6.8-36.7-13
	c0.8-3.5,2-6.7,3.6-9.8c12,7.5,24.8,13.6,37.8,19.4c-1.4,7.1-1.6,13.4-0.6,18.8c0.3-10.5,9-19.3,21.2-22.8v1.4
	C78.1,32.3,70.6,40,70.6,48.9C70.6,56.4,75.8,63,83.8,66.8z M106.1,35.6c0,0.4-0.1,0.8-0.2,1.1c-0.2,0-0.3,0-0.5,0
	c-0.6,0-1.2,0.1-1.8,0.4c-0.1,0-0.2,0.1-0.2,0.1c-0.5,0.3-0.9,0.8-0.9,1.4v8.1c0,0.3,0.1,0.5,0.2,0.8c-1.2,2.6-2.7,5-4.4,7.3v-5
	c-0.2,0-0.3,0-0.5,0.1l-6.6,10.8l0,0C90.4,62.1,88.8,63,87,63h-4.6v-0.4c2.4-1,4.4-2.7,5.7-4.9h0h0l5.1-8.4c-2.9-0.9-5.2-3-6.6-5.6
	l0,0C86.3,42.9,86,42,86,41c0-3,2.4-5.4,5.4-5.4h8.3v0h1.2v0H106.1z"/>
<defs>
	
		<filter id="Adobe_OpacityMaskFilter_00000127009898271526751460000004942711718995827619_" filterUnits="userSpaceOnUse" x="15.2" y="1.5" width="43" height="45.7">
		<feColorMatrix  type="matrix" values="1 0 0 0 0  0 1 0 0 0  0 0 1 0 0  0 0 0 1 0"/>
	</filter>
</defs>
<mask maskUnits="userSpaceOnUse" x="15.2" y="1.5" width="43" height="45.7" id="SVGID_00000026844500339962969050000009142939862165681566_">
	<g style="filter:url(#Adobe_OpacityMaskFilter_00000127009898271526751460000004942711718995827619_);">
		<g>
			<defs>
				<rect id="SVGID_00000174583865995055226910000012163142255987369618_" x="15.2" y="1.5" width="43" height="45.7"/>
			</defs>
			<clipPath id="SVGID_00000003072888042942286330000009781174360496661943_">
				<use xlink:href="#SVGID_00000174583865995055226910000012163142255987369618_"  style="overflow:visible;"/>
			</clipPath>
			<g>
				<g>
					<defs>
						
							<rect id="SVGID_00000173123409185313405580000016316477392234249099_" x="13.8" y="0.2" transform="matrix(0.9981 -6.236927e-02 6.236927e-02 0.9981 -1.4464 2.3352)" width="45.7" height="48.3"/>
					</defs>
					
						<clipPath id="SVGID_00000183248288642952330440000014295728297156879275_" style="clip-path:url(#SVGID_00000003072888042942286330000009781174360496661943_);">
						<use xlink:href="#SVGID_00000173123409185313405580000016316477392234249099_"  style="overflow:visible;"/>
					</clipPath>
					<g>
						<defs>
							
								<rect id="SVGID_00000139283607218266255360000001807882954802609584_" x="10.8" y="-2.7" transform="matrix(0.9981 -6.237441e-02 6.237441e-02 0.9981 -1.4465 2.3354)" width="51.8" height="54"/>
						</defs>
						
							<clipPath id="SVGID_00000150095626811653816400000017158014715388040071_" style="clip-path:url(#SVGID_00000183248288642952330440000014295728297156879275_);">
							<use xlink:href="#SVGID_00000139283607218266255360000001807882954802609584_"  style="overflow:visible;"/>
						</clipPath>
						<g style="clip-path:url(#SVGID_00000150095626811653816400000017158014715388040071_);">
							
								<image style="overflow:visible;" width="230" height="239" xlink:href="F11D8CF8.jpg"  transform="matrix(0.24 0 0 0.24 9.12 -4.32)">
							</image>
						</g>
					</g>
				</g>
			</g>
		</g>
	</g>
</mask>
<path style="mask:url(#SVGID_00000026844500339962969050000009142939862165681566_);fill-rule:evenodd;clip-rule:evenodd;fill:#A8802B;" d="
	M42.4,45.4c-0.9,0.6-1.9,1.2-2.9,1.8c-0.6-0.5-1.3-0.9-1.9-1.4C38.9,45.2,40.6,45.2,42.4,45.4 M53.7,34.5c-2.4,3.3-5.3,6.4-8.6,8.9
	c-9.5-3-17-8.7-23.2-16.1c2.2-0.6,4.6-1,7-0.1C37.2,30.6,45.4,33.3,53.7,34.5z M58.2,27c-1,2.1-2.1,4.1-3.4,5.9
	C32.9,27.5,16.3,20.1,15.2,1.5C28.3,11.9,43,19.8,58.2,27z"/>
<defs>
	
		<filter id="Adobe_OpacityMaskFilter_00000135669227672794063160000004157518221231138492_" filterUnits="userSpaceOnUse" x="119" y="4.1" width="65.7" height="84.8">
		<feColorMatrix  type="matrix" values="1 0 0 0 0  0 1 0 0 0  0 0 1 0 0  0 0 0 1 0"/>
	</filter>
</defs>
<mask maskUnits="userSpaceOnUse" x="119" y="4.1" width="65.7" height="84.8" id="SVGID_00000068646350134151959360000015166124658327039634_">
	<g style="filter:url(#Adobe_OpacityMaskFilter_00000135669227672794063160000004157518221231138492_);">
		<g>
			<defs>
				<rect id="SVGID_00000151531295411507987610000007000789701842163646_" x="119" y="4.1" width="65.7" height="84.8"/>
			</defs>
			<clipPath id="SVGID_00000155129085932448106190000006484394124273707695_">
				<use xlink:href="#SVGID_00000151531295411507987610000007000789701842163646_"  style="overflow:visible;"/>
			</clipPath>
			<g>
				<g>
					<defs>
						
							<rect id="SVGID_00000070082856115361305490000017773861382548935577_" x="116.4" y="2.1" transform="matrix(0.9981 -6.237966e-02 6.237966e-02 0.9981 -2.6035 9.564)" width="70.9" height="88.7"/>
					</defs>
					
						<clipPath id="SVGID_00000063612735252660524060000004930172211863746746_" style="clip-path:url(#SVGID_00000155129085932448106190000006484394124273707695_);">
						<use xlink:href="#SVGID_00000070082856115361305490000017773861382548935577_"  style="overflow:visible;"/>
					</clipPath>
					<g>
						<defs>
							
								<rect id="SVGID_00000131360825066017656780000004095964994070015631_" x="110.9" y="-2.3" transform="matrix(0.9981 -6.237438e-02 6.237438e-02 0.9981 -2.6034 9.5632)" width="81.9" height="97.5"/>
						</defs>
						
							<clipPath id="SVGID_00000081645295342272761610000005819220477510133400_" style="clip-path:url(#SVGID_00000063612735252660524060000004930172211863746746_);">
							<use xlink:href="#SVGID_00000131360825066017656780000004095964994070015631_"  style="overflow:visible;"/>
						</clipPath>
						<g style="clip-path:url(#SVGID_00000081645295342272761610000005819220477510133400_);">
							
								<image style="overflow:visible;" width="367" height="428" xlink:href="F11D8CD1.jpg"  transform="matrix(0.24 0 0 0.24 107.76 -4.8)">
							</image>
						</g>
					</g>
				</g>
			</g>
		</g>
	</g>
</mask>
<g style="mask:url(#SVGID_00000068646350134151959360000015166124658327039634_);">
	<path class="st36" d="M131,78.8c-0.1-0.1-0.3-0.2-0.4-0.4h19.1v0.4H131z"/>
	<path class="st36" d="M143.7,87.5c-0.2-0.1-0.5-0.2-0.7-0.3c1.5-0.1,4.1-0.3,4.1-1c0-1-1.8-1.5-2.6-1.5c-1.3,0-2.4,0.5-3.5,1.5
		c-0.1-0.1-0.2-0.1-0.3-0.2c1.2-1.1,2.5-1.7,3.8-1.7c1,0,3,0.6,3,1.9C147.4,87.1,145.3,87.4,143.7,87.5z"/>
	<path class="st36" d="M147.1,88.9c-0.1,0-0.3-0.1-0.4-0.1c0.7-0.6,1.3-1.3,1.7-2.1c1-1.7,1.5-5-1.5-5c-2.5,0-5.2,1.9-7.1,3.9
		c-0.1-0.1-0.2-0.1-0.3-0.2c2-2.1,4.9-4,7.5-4c3.3,0,3,3.6,1.8,5.6C148.3,87.6,147.7,88.3,147.1,88.9z"/>
	<path class="st36" d="M181.8,4.1c1,0.5,2,0.9,2.9,1.5c-3.6,17.9-23.6,24.1-47.9,29.4c0,2.3,0,5.2,0,7.5c0.8-2.4,1.8-4.9,3.5-7.4
		c10.6-0.5,20.8-3.7,31.2-7.8c2.3-0.9,4.7-0.5,7,0.1c-9.2,11.1-21.5,18.3-39.2,18.5c-0.9,1.4-1.8,2.9-2.7,4.3
		c0.7-0.3,1.2-0.9,1.9-1.4c8.2,0.2,12.8-1.2,18-3.1c2.5-0.4,4.8-0.5,6.4,0.2c-8.2,6.4-17.3,10.3-27.9,9.9c-1.2,2.4-2.8,4.5-5.1,5.7
		l0,0c-1.6,2.7-3.9,5.2-6.7,7.3c-0.8-1.4-1.6-2.9-2.3-4.4c5.6-3.9,9-9.4,9-15.4c0-6.7-4.2-12.7-10.9-16.6c0.1-0.5,0.3-0.9,0.4-1.4
		c7.9,4.4,13.1,11.5,13.4,19.5c1-5.4,0.8-11.7-0.6-18.8C149.5,23.9,166.6,15.4,181.8,4.1z"/>
</g>
<g>
	<path class="st37" d="M73.8,93.4L70,88.2c1-0.2,1.7-0.6,2.3-1.1c0.8-0.7,1.3-1.7,1.3-2.8c0-0.9-0.3-1.8-0.8-2.5
		c-0.6-0.7-1.3-1.2-2.2-1.4c-0.9-0.3-2.3-0.4-4.2-0.4h-7.4v0.4c0.7,0,1.2,0.1,1.5,0.2c0.3,0.1,0.5,0.3,0.6,0.5
		c0.1,0.2,0.2,0.7,0.2,1.6v10.1c0,0.8-0.1,1.4-0.2,1.6c-0.1,0.2-0.3,0.4-0.6,0.5c-0.3,0.1-0.8,0.2-1.5,0.2v0.4H67v-0.4
		c-0.7,0-1.2-0.1-1.5-0.2c-0.3-0.1-0.5-0.3-0.6-0.5c-0.1-0.2-0.2-0.7-0.2-1.6v-4.3h1l5.1,7.1h5v-0.4c-0.4,0-0.8-0.2-1.1-0.4
		C74.7,94.5,74.3,94.1,73.8,93.4z M69.2,86.3c-0.3,0.5-0.7,0.9-1.3,1.1c-0.5,0.2-1.4,0.3-2.4,0.3h-0.7v-6.8H66
		c1.3,0,2.2,0.3,2.7,0.8s0.9,1.4,0.9,2.6C69.6,85.1,69.5,85.8,69.2,86.3z"/>
	<path class="st37" d="M86.7,95.1h-0.3v0.4h7.7v-0.4c-0.5,0-0.9-0.2-1.1-0.4c-0.4-0.3-0.8-1.1-1.4-2.3l-5.8-12.7h-0.2L80,92.1
		c-0.5,1.2-1,2-1.4,2.3c-0.4,0.4-0.8,0.6-1.4,0.7v0.4h5.3v-0.4c-0.8-0.1-1.4-0.2-1.6-0.3c-0.4-0.2-0.5-0.5-0.5-1
		c0-0.3,0.1-0.7,0.3-1.2l0.7-1.5H87l0.8,1.9c0.2,0.5,0.3,0.8,0.4,0.9c0,0.1,0.1,0.3,0.1,0.4c0,0.2-0.1,0.4-0.3,0.5
		C87.8,95,87.3,95.1,86.7,95.1z M81.8,90.2l2.4-5.3l2.4,5.3H81.8z"/>
	<path class="st37" d="M107.7,80.8c-1.2-0.5-2.7-0.8-4.6-0.8h-7.1v0.4h0.5c0.4,0,0.8,0.1,1.1,0.2c0.3,0.1,0.4,0.3,0.5,0.5
		c0.1,0.2,0.1,0.7,0.1,1.5v10.2c0,0.8,0,1.3-0.1,1.4c-0.1,0.2-0.3,0.4-0.5,0.6c-0.2,0.1-0.6,0.2-1.1,0.2h-0.5v0.4h7.1
		c1,0,1.8,0,2.3-0.1c1.1-0.2,2-0.5,2.7-0.8c0.7-0.4,1.4-0.8,2-1.4c0.6-0.6,1-1.4,1.4-2.3c0.4-0.9,0.5-1.9,0.5-3c0-1.6-0.4-3-1.1-4.2
		C110.2,82.3,109.1,81.4,107.7,80.8z M106.3,93.4c-0.7,0.9-1.7,1.3-3,1.3c-0.4,0-0.7-0.1-0.9-0.2c-0.1-0.1-0.3-0.2-0.3-0.3
		C102,94,102,93.6,102,93V80.9c1.3,0,2.2,0.1,2.8,0.3c0.8,0.3,1.5,1,2,1.9c0.6,1.2,1,2.8,1,4.8C107.7,90.4,107.3,92.2,106.3,93.4z"
		/>
	<path class="st37" d="M114.7,80.4h0.5c0.4,0,0.8,0.1,1.1,0.2c0.3,0.1,0.4,0.3,0.5,0.5c0.1,0.2,0.1,0.7,0.1,1.5v10.2
		c0,0.8,0,1.3-0.1,1.4c-0.1,0.3-0.3,0.4-0.5,0.5c-0.3,0.2-0.7,0.2-1.1,0.2h-0.5v0.4h8.3v-0.4h-0.5c-0.4,0-0.8-0.1-1.1-0.2
		c-0.3-0.1-0.4-0.3-0.5-0.5c-0.1-0.2-0.1-0.7-0.1-1.5V82.7c0-0.8,0-1.3,0.1-1.4c0.1-0.3,0.3-0.4,0.5-0.5c0.3-0.2,0.7-0.2,1.1-0.2
		h0.5V80L114.7,80.4z"/>
	<path class="st37" d="M141.6,80h-5.3v0.4c0.9,0,1.5,0.2,1.9,0.6c0.3,0.3,0.4,1,0.4,1.9v6.7l-7.9-9.6h-5.7v0.4
		c0.5,0,0.9,0.1,1.1,0.2c0.3,0.1,0.6,0.4,0.9,0.8l0.3,0.4v10.9c0,0.8-0.2,1.4-0.5,1.7c-0.3,0.3-1,0.5-1.8,0.5v0.4h5.7v-0.4h-0.4
		c-0.5,0-1-0.2-1.4-0.5c-0.4-0.3-0.6-0.9-0.6-1.8V83l10.8,12.9h0.4V83c0-0.7,0.1-1.2,0.2-1.5c0.1-0.3,0.3-0.5,0.5-0.7
		c0.2-0.1,0.7-0.2,1.4-0.3V80z"/>
</g>
</svg>
